<svg width="75" height="21" viewBox="0 0 75 21" fill="none" xmlns="http://www.w3.org/2000/svg">
<path d="M7.344 5.336H9.624V10.208H10.56C10.64 10.208 10.68 10.168 10.68 10.088V4.4C10.68 4.32 10.64 4.28 10.56 4.28H2.832C2.752 4.28 2.712 4.32 2.712 4.4V14.648C2.712 14.728 2.752 14.768 2.832 14.768H10.56C10.64 14.768 10.68 14.728 10.68 14.648V13.136H12.912V14.768C12.912 15.44 12.704 15.984 12.288 16.4C11.872 16.8 11.328 17 10.656 17H2.736C2.064 17 1.52 16.824 1.104 16.472C0.688 16.12 0.48 15.656 0.48 15.08V3.968C0.48 3.392 0.688 2.928 1.104 2.576C1.52 2.224 2.064 2.048 2.736 2.048H10.656C11.328 2.048 11.872 2.256 12.288 2.672C12.704 3.072 12.912 3.608 12.912 4.28V10.208C12.912 10.848 12.688 11.384 12.24 11.816C11.808 12.232 11.224 12.44 10.488 12.44H10.224L9.624 11.504V13.712H7.344V12.776L6.744 13.712H6.096C5.36 13.712 4.768 13.504 4.32 13.088C3.888 12.656 3.672 12.12 3.672 11.48V7.568C3.672 6.912 3.896 6.376 4.344 5.96C4.792 5.544 5.392 5.336 6.144 5.336C6.592 5.336 6.992 5.44 7.344 5.648V5.336ZM6.072 7.568C5.992 7.568 5.952 7.608 5.952 7.688V11.36C5.952 11.44 5.992 11.48 6.072 11.48H7.344V7.568H6.072ZM16.2868 17C15.5508 17 14.9588 16.792 14.5108 16.376C14.0788 15.944 13.8628 15.408 13.8628 14.768V7.232C13.8628 6.576 14.0788 6.04 14.5108 5.624C14.9588 5.208 15.5508 5 16.2868 5H16.3828C16.8148 5 17.1988 5.104 17.5348 5.312V5H19.8148V14.768H20.1508L20.3908 17H17.5348V16.064L16.9348 17H16.2868ZM16.2628 7.232C16.1828 7.232 16.1428 7.272 16.1428 7.352V14.648C16.1428 14.728 16.1828 14.768 16.2628 14.768H17.5348V7.232H16.2628ZM21.3238 17V7.232H20.7478L20.9878 5H23.6038V5.936L24.2038 5H24.8518C25.5878 5 26.1718 5.208 26.6038 5.624C27.0518 6.04 27.2758 6.576 27.2758 7.232V14.768H27.8758L27.6358 17H24.9958V7.352C24.9958 7.272 24.9558 7.232 24.8758 7.232H23.6038V17H21.3238ZM30.9118 17C30.1758 17 29.5838 16.792 29.1358 16.376C28.7038 15.944 28.4878 15.408 28.4878 14.768V7.232C28.4878 6.576 28.7038 6.04 29.1358 5.624C29.5838 5.208 30.1758 5 30.9118 5H31.0078C31.4398 5 31.8238 5.104 32.1598 5.312V2.432H31.5838L31.8238 0.199999H34.4398V14.768H34.7758L35.0158 17H32.1598V16.064L31.5598 17H30.9118ZM30.8878 7.232C30.8078 7.232 30.7678 7.272 30.7678 7.352V14.648C30.7678 14.728 30.8078 14.768 30.8878 14.768H32.1598V7.232H30.8878ZM38.2288 5V6.056L38.8768 5H40.4848V7.328H38.2288V17H35.9488V7.232H35.3728L35.6128 5H38.2288ZM41.2144 14.864V7.136C41.2144 6.464 41.4224 5.928 41.8384 5.528C42.2544 5.112 42.7984 4.904 43.4704 4.904H44.9584C45.6304 4.904 46.1744 5.112 46.5904 5.528C47.0064 5.928 47.2144 6.464 47.2144 7.136V10.088H44.9344V7.256C44.9344 7.176 44.8944 7.136 44.8144 7.136H43.6144C43.5344 7.136 43.4944 7.176 43.4944 7.256V10.088H47.2144V12.32H43.4944V14.744C43.4944 14.824 43.5344 14.864 43.6144 14.864H44.8144C44.8944 14.864 44.9344 14.832 44.9344 14.768V13.448H47.2144V14.864C47.2144 15.536 47.0064 16.08 46.5904 16.496C46.1744 16.896 45.6304 17.096 44.9584 17.096H43.4704C42.7984 17.096 42.2544 16.896 41.8384 16.496C41.4224 16.08 41.2144 15.536 41.2144 14.864ZM50.7165 17C49.9805 17 49.3885 16.792 48.9405 16.376C48.5085 15.944 48.2925 15.408 48.2925 14.768V7.232H47.9325L48.1725 5H50.5725V14.768H51.9645V5H54.2445V18.128C54.2445 18.752 54.0285 19.248 53.5965 19.616C53.1645 20 52.6285 20.192 51.9885 20.192H50.5485C49.8765 20.192 49.3325 19.984 48.9165 19.568C48.5005 19.168 48.2925 18.632 48.2925 17.96V17.48H50.5725V18.128H51.9645V16.064L51.3645 17H50.7165ZM55.4254 17V2.432H54.8494L55.0894 0.199999H57.7054V8.912L59.6254 5H61.8574L59.3134 10.16L62.0974 17H59.8654L57.7054 11.696V17H55.4254ZM66.4059 14.768V17H62.6139V14.768H63.4299V4.832H62.5659L63.0459 2.6H65.7099V14.768H66.4059ZM67.7066 17V7.232H67.1306L67.3706 5H69.9866V5.936L70.5866 5H71.2346C71.9706 5 72.5546 5.208 72.9866 5.624C73.4346 6.04 73.6586 6.576 73.6586 7.232V14.768H74.2586L74.0186 17H71.3786V7.352C71.3786 7.272 71.3386 7.232 71.2586 7.232H69.9866V17H67.7066Z" fill="black"/>
</svg>
