<svg width="17" height="17" viewBox="0 0 17 17" fill="none" xmlns="http://www.w3.org/2000/svg">
<path d="M9.18157 16.9997C4.7637 17.0326 1.13389 14.2852 0.209495 10.3182C-0.685435 6.47798 1.30693 2.1009 5.80194 0.515626C6.67571 0.207507 7.5776 0.0349607 8.50762 0.0010677C8.92736 -0.0140815 9.16416 0.131248 9.31416 0.483787C9.45613 0.817582 9.3897 1.0859 9.09264 1.34986C7.97029 2.34739 7.31081 3.57422 7.14554 5.03187C6.78526 8.20755 9.03022 10.8368 11.9055 11.4525C13.2558 11.7417 14.5651 11.6064 15.8281 11.0615C16.3413 10.8402 16.8507 11.06 16.9769 11.5553C17.0289 11.7589 16.9906 11.9507 16.8963 12.1399C16.0962 13.7437 14.887 14.9836 13.2847 15.8728C11.9633 16.6061 10.5372 16.9784 9.18183 16.9995L9.18157 16.9997ZM6.57017 1.8924C4.23949 2.54433 1.83408 4.85727 1.61417 8.00162C1.40925 10.93 3.19831 14.1509 6.86214 15.1895C9.94685 16.0638 12.8738 14.7892 14.332 13.0853C11.1838 13.3542 8.5912 12.3548 6.82116 9.80334C5.04871 7.24879 5.0921 4.56892 6.57044 1.8924H6.57017Z" fill="#C2C2C2"/>
</svg>
