<svg width="18" height="18" viewBox="0 0 18 18" fill="none" xmlns="http://www.w3.org/2000/svg">
<path d="M15.672 2.25604C13.38 4.42266e-05 9.69597 0.0360442 7.45197 2.32804C5.69998 4.10404 5.27997 6.81604 6.40797 9.03604C6.44397 9.12004 6.43197 9.22804 6.35997 9.28804L0.659976 14.976C0.659976 14.976 0.599976 15.072 0.599976 15.132V17.172C0.599976 17.292 0.695975 17.388 0.815975 17.388H2.86797C2.86797 17.388 2.97598 17.364 3.02398 17.328L4.75198 15.612C4.75198 15.612 4.84798 15.552 4.90798 15.552H7.18797C7.42797 15.552 7.63197 15.36 7.63197 15.108V12.828C7.63197 12.828 7.65597 12.72 7.69197 12.672L8.73597 11.628C8.80797 11.556 8.90397 11.544 8.98797 11.592C11.856 13.032 15.348 11.88 16.788 9.01204C17.916 6.75604 17.472 4.03204 15.672 2.25604ZM14.136 6.54004C13.44 7.32004 12.252 7.38004 11.472 6.68404C10.692 5.98804 10.632 4.80004 11.328 4.02004C12.024 3.24004 13.212 3.18004 13.992 3.87604C14.04 3.92404 14.088 3.97204 14.136 4.02004C14.772 4.74004 14.772 5.82004 14.136 6.54004Z" fill="white"/>
</svg>
