<svg width="17" height="17" viewBox="0 0 17 17" fill="none" xmlns="http://www.w3.org/2000/svg">
<g clip-path="url(#clip0_2234_4)">
<path d="M8.5 3.92308C5.97656 3.92308 3.92308 5.97656 3.92308 8.5C3.92308 11.0234 5.97656 13.0769 8.5 13.0769C11.0234 13.0769 13.0769 11.0234 13.0769 8.5C13.0769 5.97656 11.0234 3.92308 8.5 3.92308ZM8.5 11.7692C6.69424 11.7692 5.23077 10.3058 5.23077 8.5C5.23077 6.69424 6.69424 5.23077 8.5 5.23077C10.3058 5.23077 11.7692 6.69424 11.7692 8.5C11.7692 10.3058 10.3058 11.7692 8.5 11.7692ZM8.5 2.61538C8.86096 2.61538 9.15385 2.3225 9.15385 1.96154V0.653846C9.15385 0.292882 8.86096 0 8.5 0C8.13904 0 7.84615 0.292882 7.84615 0.653846V1.96154C7.84615 2.3225 8.13904 2.61538 8.5 2.61538ZM8.5 14.3846C8.13904 14.3846 7.84615 14.6775 7.84615 15.0385V16.3462C7.84615 16.7071 8.13904 17 8.5 17C8.86096 17 9.15385 16.7071 9.15385 16.3462V15.0385C9.15385 14.6775 8.86096 14.3846 8.5 14.3846ZM13.5852 4.33856L14.5098 3.41398C14.7652 3.15857 14.7652 2.74481 14.5098 2.4894C14.2544 2.23399 13.8406 2.23399 13.5852 2.4894L12.6606 3.41398C12.4052 3.66938 12.4052 4.08315 12.6606 4.33856C12.916 4.59396 13.3298 4.59396 13.5852 4.33856ZM3.41479 12.6615L2.49021 13.5861C2.23481 13.8414 2.23481 14.2552 2.49021 14.5106C2.74562 14.766 3.15938 14.766 3.41479 14.5106L4.33937 13.5861C4.59478 13.3298 4.59478 12.9169 4.33937 12.6615C4.084 12.406 3.6702 12.4052 3.41479 12.6615ZM2.61538 8.5C2.61538 8.13904 2.3225 7.84615 1.96154 7.84615H0.653846C0.292882 7.84615 0 8.13904 0 8.5C0 8.86096 0.292882 9.15385 0.653846 9.15385H1.96154C2.3225 9.15385 2.61538 8.86096 2.61538 8.5ZM16.3462 7.84615H15.0385C14.6775 7.84615 14.3846 8.13904 14.3846 8.5C14.3846 8.86096 14.6775 9.15385 15.0385 9.15385H16.3462C16.7071 9.15385 17 8.86096 17 8.5C17 8.13904 16.7071 7.84615 16.3462 7.84615ZM3.41394 4.33856C3.66938 4.59396 4.08315 4.59396 4.33851 4.33856C4.59396 4.08315 4.59396 3.66938 4.33851 3.41398L3.41394 2.4894C3.15853 2.23399 2.74481 2.23399 2.48936 2.4894C2.23395 2.74481 2.23395 3.15857 2.48936 3.41398L3.41394 4.33856ZM13.5861 12.6606C13.3298 12.4052 12.9169 12.4052 12.6615 12.6606C12.406 12.916 12.4052 13.3298 12.6615 13.5852L13.5861 14.5097C13.8414 14.7652 14.2552 14.7652 14.5106 14.5097C14.766 14.2543 14.766 13.8406 14.5106 13.5852L13.5861 12.6606Z" fill="#C2C2C2"/>
</g>
<defs>
<clipPath id="clip0_2234_4">
<rect width="17" height="17" fill="white"/>
</clipPath>
</defs>
</svg>
